<svg width="209" height="252" viewBox="0 0 209 252" fill="none" xmlns="http://www.w3.org/2000/svg">
<g id="Mingo Small" clip-path="url(#clip0_1911_312)">
<g id="Mingo">
<path d="M30.2031 73.9937C30.2031 33.1281 63.3312 0 104.197 0C145.062 0 178.19 33.1281 178.19 73.9937V91.6182C178.19 93.5512 176.623 95.1182 174.69 95.1182C172.757 95.1182 171.19 93.5512 171.19 91.6182V73.9937C171.19 36.9941 141.196 7 104.197 7C67.1972 7 37.2031 36.9941 37.2031 73.9937V121.618C37.2031 123.551 35.6361 125.118 33.7031 125.118C31.7701 125.118 30.2031 123.551 30.2031 121.618V73.9937Z" fill="#F04E45"/>
<path d="M171.19 127.974C171.19 126.041 172.757 124.474 174.69 124.474C176.623 124.474 178.19 126.041 178.19 127.974V177.598C178.19 218.463 145.062 251.591 104.197 251.591C63.3312 251.591 30.2031 218.463 30.2031 177.598V157.974C30.2031 156.041 31.7701 154.474 33.7031 154.474C35.6361 154.474 37.2031 156.041 37.2031 157.974V177.598C37.2031 214.597 67.1972 244.591 104.197 244.591C141.196 244.591 171.19 214.597 171.19 177.598V127.974Z" fill="#F04E45"/>
<path d="M79.748 63.9355C79.748 65.525 78.4595 66.8135 76.8701 66.8135C75.2807 66.8135 73.9922 65.525 73.9922 63.9355C73.9922 62.3461 75.2807 61.0576 76.8701 61.0576C78.4595 61.0576 79.748 62.3461 79.748 63.9355Z" fill="#F04E45"/>
<path fill-rule="evenodd" clip-rule="evenodd" d="M110.246 123.083C111.452 124.442 112.572 125.744 113.535 126.942C114.042 127.572 114.505 128.173 114.915 128.738L114.931 128.759C115.071 128.953 115.206 129.143 115.333 129.329L115.337 129.335C117.012 131.769 117.525 133.419 115.95 133.645C111.524 134.274 106.799 133.551 102.124 131.985L102.306 132.086C102.306 132.086 81.5322 154.177 75.9425 168.151C71.0095 180.476 75.3936 192.123 84.1888 192.237C84.6273 192.243 84.9992 191.928 85.1071 191.503C94.7182 153.653 126.645 124.706 166.058 119.489C166.653 119.41 167.18 119.875 167.18 120.475L167.18 135.48C167.18 135.977 166.813 136.397 166.323 136.475C128.164 142.495 98.9844 175.531 98.9844 215.382C98.9844 223.706 100.257 231.732 102.619 239.276C102.825 239.935 102.329 240.608 101.64 240.58C83.2564 239.85 66.8887 231.247 55.8488 218.034C48.1144 208.772 44.8566 193.815 46.8878 178.183C49.9013 155.168 62.3619 140.965 83.2316 121.492L83.4326 121.604C76.2854 116.108 71.0372 110.189 69.95 107.145C68.6931 103.625 67.8311 90.5875 67.3641 77.8605L67.3594 77.8652C67.0859 70.3398 66.9453 62.9219 66.9453 57.6445C66.9453 34.1445 80.4453 20.1445 104.445 20.1445C125.148 20.1445 141.445 36.9443 141.445 57.6445C141.445 84.0317 130.822 99.1701 110.246 123.083ZM72.817 72.4076C72.4274 72.7972 72.2157 73.3301 72.2327 73.8808C72.3498 77.6813 72.5035 81.6031 72.6936 85.3674C72.9416 90.2787 73.2493 94.8714 73.6132 98.5527C74.0004 102.47 74.4017 104.744 74.6587 105.463C74.7255 105.65 75.0418 106.297 75.8763 107.419C76.6607 108.473 77.7439 109.735 79.1018 111.129C81.817 113.916 85.4591 117.055 89.6043 119.918C95.0497 123.68 100.889 126.643 106.363 128.024C107.002 128.185 107.432 127.451 106.997 126.957C105.251 124.973 103.238 122.792 101.164 120.548L101.104 120.483C98.5137 117.68 95.8539 114.801 93.7783 112.331C92.733 111.087 91.761 109.858 90.9922 108.731C90.331 107.761 89.4197 106.307 89.069 104.729C88.0468 100.129 87.2052 90.2276 87.0891 79.3856C87.0834 78.8603 86.8735 78.357 86.502 77.9855L78.8984 70.3809C78.3047 69.7871 78.6641 68.6807 79.3828 68.2578C80.0469 67.8701 80.6172 67.334 81.0391 66.6953C81.3125 66.2793 81.5312 65.8193 81.6719 65.3291C81.7969 64.8867 81.8672 64.4189 81.8672 63.9355C81.8672 61.1738 79.6328 58.9355 76.8672 58.9355C75.1094 58.9355 73.5703 59.8359 72.6797 61.2002C72.1641 61.9863 71.8672 62.9258 71.8672 63.9355C71.8672 65.7793 72.8672 67.3906 74.3516 68.2578C75.0703 68.6807 75.4297 69.7871 74.8438 70.3809L72.817 72.4076ZM92.0768 75.3734C92.0999 71.6158 92.2166 67.797 92.4531 64.1025C92.4766 63.7715 92.6641 63.4775 92.9453 63.2979C96.2578 61.1621 98.4531 57.4385 98.4531 53.2031C98.4531 51.5225 98.1484 48.7988 95.9844 45.835C95.6875 45.4307 95.6953 44.8662 96.0703 44.5332C103.117 38.2627 121.672 40.4131 122.445 58.6445C123.453 78.4452 111.119 93.2991 96.9164 108.281C96.8513 108.201 96.787 108.121 96.7235 108.042C95.3974 106.395 94.4403 105.012 94.0736 104.047C94.0191 103.903 93.9776 103.769 93.95 103.645C92.908 98.9558 92.0018 87.4818 92.0796 75.3734H92.0768Z" fill="#F04E45"/>
<path d="M167.18 142.531C167.18 141.917 166.629 141.448 166.024 141.553C130.786 147.645 103.984 178.364 103.984 215.342C103.984 223.887 105.415 232.097 108.051 239.746C108.196 240.168 108.608 240.439 109.053 240.405C113.373 240.075 117.572 239.309 121.604 238.151C122.167 237.99 122.46 237.376 122.252 236.829C119.716 230.152 118.328 222.909 118.328 215.343C118.328 186.191 138.932 161.852 166.372 156.094C166.84 155.995 167.18 155.585 167.18 155.106L167.18 142.531Z" fill="#F04E45"/>
<path d="M167.181 175.086C167.181 175.529 166.888 175.918 166.465 176.052C149.778 181.316 137.68 196.916 137.68 215.343C137.68 219.988 138.449 224.453 139.866 228.619C140.012 229.048 139.862 229.524 139.487 229.778C135.99 232.148 132.242 234.176 128.292 235.814C127.784 236.024 127.205 235.776 127.008 235.264C124.631 229.08 123.328 222.363 123.328 215.343C123.328 189.108 141.517 167.122 165.972 161.307C166.592 161.16 167.18 161.635 167.181 162.271L167.181 175.086Z" fill="#F04E45"/>
<path d="M165.689 181.626C166.35 181.368 167.041 181.889 166.985 182.597C165.652 199.576 157.587 214.662 145.458 225.189C144.921 225.655 144.09 225.408 143.907 224.722C143.106 221.73 142.68 218.586 142.68 215.343C142.68 200.006 152.219 186.897 165.689 181.626Z" fill="#F04E45"/>
<path d="M0 107.989C0 107.161 0.67157 106.489 1.5 106.489H6.46875C17.2383 106.489 25.9688 115.22 25.9688 125.989V130.958C25.9688 131.786 25.2972 132.458 24.4688 132.458H19.5C8.73047 132.458 0 123.728 0 112.958V107.989Z" fill="#F04E45"/>
<path d="M33.4875 144.552C30.4689 144.552 28.0219 142.105 28.0219 139.087C28.0219 136.068 30.4689 133.621 33.4875 133.621C36.5061 133.621 38.9531 136.068 38.9531 139.087C38.9531 142.105 36.5061 144.552 33.4875 144.552Z" fill="#F04E45"/>
<path d="M208.477 76.9893C208.477 76.1608 207.805 75.4893 206.977 75.4893H202.008C191.238 75.4893 182.508 84.2197 182.508 94.9893V99.958C182.508 100.786 183.179 101.458 184.008 101.458H188.977C199.746 101.458 208.477 92.7275 208.477 81.958V76.9893Z" fill="#F04E45"/>
<path d="M174.997 114.552C178.015 114.552 180.462 112.105 180.462 109.087C180.462 106.068 178.015 103.621 174.997 103.621C171.978 103.621 169.531 106.068 169.531 109.087C169.531 112.105 171.978 114.552 174.997 114.552Z" fill="#F04E45"/>
</g>
</g>
<defs>
<clipPath id="clip0_1911_312">
<rect width="208.477" height="251.591" fill="white"/>
</clipPath>
</defs>
</svg>
