<svg width="186" height="250" viewBox="0 0 186 250" fill="none" xmlns="http://www.w3.org/2000/svg">
<g id="Mingo Monochrome" clip-path="url(#clip0_1911_318)">
<g id="Mingo">
<path d="M163.198 81.1182C161.818 81.1182 160.698 79.9989 160.698 78.6182V72.9937C160.698 35.4418 130.256 5 92.7046 5C55.1528 5 24.7109 35.4418 24.7109 72.9937V108.618C24.7109 109.999 23.5916 111.118 22.2109 111.118C20.8302 111.118 19.7109 109.999 19.7109 108.618V72.9937C19.7109 32.6804 52.3913 0 92.7046 0C133.018 0 165.698 32.6804 165.698 72.9937V78.6182C165.698 79.9989 164.579 81.1182 163.198 81.1182Z" fill="#00C7F2"/>
<path d="M160.698 130.974C160.698 129.593 161.818 128.474 163.198 128.474C164.579 128.474 165.698 129.593 165.698 130.974V176.598C165.698 216.911 133.018 249.591 92.7046 249.591C52.3913 249.591 19.7109 216.911 19.7109 176.598V160.974C19.7109 159.593 20.8302 158.474 22.2109 158.474C23.5916 158.474 24.7109 159.593 24.7109 160.974V176.598C24.7109 214.15 55.1528 244.591 92.7046 244.591C130.256 244.591 160.698 214.15 160.698 176.598V130.974Z" fill="#00C7F2"/>
<path d="M67.375 62.9355C67.375 64.0401 66.4796 64.9355 65.375 64.9355C64.2704 64.9355 63.375 64.0401 63.375 62.9355C63.375 61.831 64.2704 60.9355 65.375 60.9355C66.4796 60.9355 67.375 61.831 67.375 62.9355Z" fill="#00C7F2"/>
<path fill-rule="evenodd" clip-rule="evenodd" d="M98.7536 122.083C99.9602 123.442 101.08 124.744 102.043 125.942C102.55 126.572 103.013 127.173 103.423 127.738L103.439 127.759C103.579 127.953 103.714 128.143 103.841 128.329L103.845 128.335C105.52 130.769 106.033 132.419 104.458 132.645C100.032 133.274 95.3072 132.551 90.6319 130.985L90.8136 131.086C90.8136 131.086 70.0401 153.177 64.4503 167.151C59.5173 179.476 63.9014 191.123 72.6966 191.237C73.1351 191.243 73.507 190.928 73.6149 190.503C83.226 152.653 115.153 123.706 154.566 118.489C155.16 118.41 155.688 118.875 155.688 119.475L155.688 134.48C155.688 134.977 155.321 135.397 154.831 135.475C116.672 141.495 87.4922 174.531 87.4922 214.382C87.4922 222.706 88.7651 230.732 91.1268 238.276C91.3329 238.935 90.837 239.608 90.1478 239.58C71.7642 238.85 55.3966 230.247 44.3566 217.034C36.6222 207.772 33.3644 192.815 35.3956 177.183C38.4091 154.168 50.8698 139.965 71.7394 120.492L71.9404 120.604C64.7932 115.108 59.545 109.189 58.4578 106.145C57.2009 102.625 56.3389 89.5875 55.8719 76.8605L55.8672 76.8652C55.5938 69.3398 55.4531 61.9219 55.4531 56.6445C55.4531 33.1445 68.9531 19.1445 92.9531 19.1445C113.656 19.1445 129.953 35.9443 129.953 56.6445C129.953 83.0317 119.329 98.1701 98.7536 122.083ZM61.3248 71.4076C60.9352 71.7972 60.7235 72.3301 60.7405 72.8808C60.8577 76.6813 61.0113 80.6031 61.2014 84.3674C61.4494 89.2787 61.7571 93.8714 62.121 97.5527C62.5082 101.47 62.9096 103.744 63.1665 104.463C63.2333 104.65 63.5496 105.297 64.3841 106.419C65.1685 107.473 66.2517 108.735 67.6096 110.129C70.3248 112.916 73.9669 116.055 78.1121 118.918C83.5575 122.68 89.3964 125.643 94.8711 127.024C95.5101 127.185 95.9403 126.451 95.5049 125.957C93.7585 123.973 91.7456 121.792 89.6717 119.548L89.6118 119.483C87.0216 116.68 84.3617 113.801 82.2861 111.331C81.2408 110.087 80.2688 108.858 79.5 107.731C78.8388 106.761 77.9276 105.307 77.5768 103.729C76.5546 99.1292 75.713 89.2276 75.5969 78.3856C75.5912 77.8603 75.3813 77.357 75.0098 76.9855L67.4062 69.3809C66.8125 68.7871 67.1719 67.6807 67.8906 67.2578C68.5547 66.8701 69.125 66.334 69.5469 65.6953C69.8203 65.2793 70.0391 64.8193 70.1797 64.3291C70.3047 63.8867 70.375 63.4189 70.375 62.9355C70.375 60.1738 68.1406 57.9355 65.375 57.9355C63.6172 57.9355 62.0781 58.8359 61.1875 60.2002C60.6719 60.9863 60.375 61.9258 60.375 62.9355C60.375 64.7793 61.375 66.3906 62.8594 67.2578C63.5781 67.6807 63.9375 68.7871 63.3516 69.3809L61.3248 71.4076ZM80.5846 74.3734C80.6077 70.6158 80.7244 66.797 80.9609 63.1025C80.9844 62.7715 81.1719 62.4775 81.4531 62.2979C84.7656 60.1621 86.9609 56.4385 86.9609 52.2031C86.9609 50.5225 86.6562 47.7988 84.4922 44.835C84.1953 44.4307 84.2031 43.8662 84.5781 43.5332C91.625 37.2627 110.18 39.4131 110.953 57.6445C111.961 77.4452 99.6264 92.2991 85.4242 107.281L85.3413 107.179L85.2313 107.042C83.9052 105.395 82.9481 104.012 82.5814 103.047C82.5269 102.903 82.4854 102.769 82.4578 102.645C81.4158 97.9558 80.5096 86.4818 80.5874 74.3734H80.5846Z" fill="#00C7F2"/>
<path d="M155.688 141.531C155.688 140.917 155.137 140.448 154.532 140.553C119.294 146.645 92.4922 177.364 92.4922 214.342C92.4922 222.887 93.9231 231.097 96.5583 238.746C96.7039 239.168 97.1155 239.439 97.561 239.405C101.881 239.075 106.08 238.309 110.112 237.151C110.675 236.99 110.967 236.376 110.76 235.829C108.224 229.152 106.836 221.909 106.836 214.343C106.836 185.191 127.44 160.852 154.879 155.094C155.348 154.995 155.688 154.585 155.688 154.106L155.688 141.531Z" fill="#00C7F2"/>
<path d="M155.689 174.086C155.689 174.529 155.396 174.918 154.973 175.052C138.286 180.316 126.188 195.916 126.188 214.343C126.188 218.988 126.956 223.453 128.374 227.619C128.52 228.048 128.37 228.524 127.995 228.778C124.498 231.148 120.75 233.176 116.799 234.814C116.292 235.024 115.713 234.776 115.516 234.264C113.139 228.08 111.836 221.363 111.836 214.343C111.836 188.108 130.025 166.122 154.48 160.307C155.099 160.16 155.688 160.635 155.688 161.271L155.689 174.086Z" fill="#00C7F2"/>
<path d="M154.197 180.626C154.858 180.368 155.549 180.889 155.493 181.597C154.16 198.576 146.095 213.662 133.966 224.189C133.429 224.655 132.598 224.408 132.415 223.722C131.614 220.73 131.188 217.586 131.188 214.343C131.188 199.006 140.727 185.897 154.197 180.626Z" fill="#00C7F2"/>
<path d="M0 130.134C0 129.582 0.447708 129.134 1 129.134H4.3125C11.4922 129.134 17.3125 134.954 17.3125 142.134V145.446C17.3125 145.999 16.8648 146.446 16.3125 146.446H13C5.82031 146.446 0 140.626 0 133.446V130.134Z" fill="#00C7F2"/>
<path d="M43.625 118.555H40.3125C33.1328 118.555 27.3125 124.375 27.3125 131.555V134.867C27.3125 135.419 27.7602 135.867 28.3125 135.867H31.625C38.8047 135.867 44.625 130.047 44.625 122.867V119.555C44.625 119.002 44.1773 118.555 43.625 118.555Z" fill="#00C7F2"/>
<path d="M18.6813 151.436C18.6813 153.448 20.3126 155.079 22.325 155.079C24.3374 155.079 25.9688 153.448 25.9688 151.436C25.9688 149.423 24.3374 147.792 22.325 147.792C20.3126 147.792 18.6813 149.423 18.6813 151.436Z" fill="#00C7F2"/>
<path d="M22.325 144.509C20.3126 144.509 18.6813 142.878 18.6813 140.865C18.6813 138.853 20.3126 137.222 22.325 137.222C24.3374 137.222 25.9688 138.853 25.9688 140.865C25.9688 142.878 24.3374 144.509 22.325 144.509Z" fill="#00C7F2"/>
<path d="M23.6437 132.499C23.8806 132.909 24.4302 133.028 24.7153 132.65C25.5382 131.558 25.613 129.889 24.7864 128.457C23.9597 127.025 22.4766 126.255 21.1196 126.422C20.6494 126.48 20.4775 127.015 20.7144 127.425L23.6437 132.499Z" fill="#00C7F2"/>
<path d="M20.2503 127.693C20.0135 127.283 19.4639 127.164 19.1787 127.542C18.3559 128.634 18.2811 130.304 19.1077 131.735C19.9344 133.167 21.4174 133.937 22.7745 133.77C23.2447 133.713 23.4166 133.177 23.1797 132.767L20.2503 127.693Z" fill="#00C7F2"/>
<path d="M22.7746 115.633C23.2448 115.691 23.4167 116.226 23.1798 116.637L20.2504 121.711C20.0136 122.121 19.4639 122.24 19.1788 121.861C18.3559 120.769 18.2811 119.1 19.1078 117.668C19.9345 116.236 21.4175 115.467 22.7746 115.633Z" fill="#00C7F2"/>
<path d="M21.1197 122.982C20.6495 122.924 20.4776 122.389 20.7144 121.978L23.6438 116.905C23.8807 116.494 24.4303 116.375 24.7154 116.754C25.5383 117.846 25.6131 119.515 24.7865 120.947C23.9598 122.379 22.4767 123.149 21.1197 122.982Z" fill="#00C7F2"/>
<path d="M145.18 88.5547H141.867C141.315 88.5547 140.867 89.0024 140.867 89.5547V92.8672C140.867 100.047 146.688 105.867 153.867 105.867H157.18C157.732 105.867 158.18 105.419 158.18 104.867V101.555C158.18 94.375 152.359 88.5547 145.18 88.5547Z" fill="#00C7F2"/>
<path d="M184.492 99.1338C185.044 99.1338 185.492 99.5815 185.492 100.134V103.446C185.492 110.626 179.672 116.446 172.492 116.446H169.18C168.627 116.446 168.18 115.999 168.18 115.446V112.134C168.18 104.954 174 99.1338 181.18 99.1338H184.492Z" fill="#00C7F2"/>
<path d="M166.819 121.436C166.819 123.448 165.187 125.079 163.175 125.079C161.163 125.079 159.531 123.448 159.531 121.436C159.531 119.423 161.163 117.792 163.175 117.792C165.187 117.792 166.819 119.423 166.819 121.436Z" fill="#00C7F2"/>
<path d="M163.175 114.509C165.187 114.509 166.819 112.878 166.819 110.865C166.819 108.853 165.187 107.222 163.175 107.222C161.163 107.222 159.531 108.853 159.531 110.865C159.531 112.878 161.163 114.509 163.175 114.509Z" fill="#00C7F2"/>
<path d="M161.848 102.499C161.612 102.909 161.062 103.028 160.777 102.65C159.954 101.558 159.879 99.8887 160.706 98.4569C161.533 97.025 163.016 96.2552 164.373 96.4219C164.843 96.4796 165.015 97.015 164.778 97.4253L161.848 102.499Z" fill="#00C7F2"/>
<path d="M165.242 97.6932C165.479 97.2829 166.028 97.1641 166.313 97.5424C167.136 98.6343 167.211 100.304 166.384 101.735C165.558 103.167 164.075 103.937 162.718 103.77C162.247 103.713 162.076 103.177 162.312 102.767L165.242 97.6932Z" fill="#00C7F2"/>
<path d="M162.718 85.6333C162.247 85.691 162.076 86.2264 162.312 86.6367L165.242 91.7105C165.479 92.1208 166.028 92.2396 166.313 91.8613C167.136 90.7694 167.211 89.1001 166.384 87.6683C165.558 86.2364 164.075 85.4666 162.718 85.6333Z" fill="#00C7F2"/>
<path d="M164.373 92.9819C164.843 92.9241 165.015 92.3887 164.778 91.9784L161.848 86.9046C161.611 86.4943 161.062 86.3755 160.777 86.7538C159.954 87.8457 159.879 89.515 160.706 90.9468C161.532 92.3787 163.015 93.1485 164.373 92.9819Z" fill="#00C7F2"/>
</g>
</g>
<defs>
<clipPath id="clip0_1911_318">
<rect width="185.492" height="249.591" fill="white"/>
</clipPath>
</defs>
</svg>
