<svg width="176" height="250" viewBox="0 0 176 250" fill="none" xmlns="http://www.w3.org/2000/svg">
<g clip-path="url(#clip0_1911_382)">
<path fill-rule="evenodd" clip-rule="evenodd" d="M93.755 122.087C98.6886 127.646 102.165 132.258 99.4542 132.645C95.0871 133.266 90.4269 132.569 85.8136 131.046C85.8136 131.046 65.0401 153.137 59.4503 167.111C54.5173 179.436 58.9014 191.084 67.6966 191.198C68.1351 191.203 68.507 190.888 68.6149 190.463C78.226 152.614 110.153 123.667 149.566 118.449C150.16 118.371 150.688 118.836 150.688 119.435L150.689 176.597C150.689 211.388 122.485 239.591 87.6925 239.591C68.2785 239.591 50.9035 230.813 39.3566 216.994C31.6222 207.732 28.3644 192.775 30.3956 177.144C33.4091 154.129 45.8697 139.926 66.7394 120.452C59.6925 115 54.5324 109.161 53.4542 106.145C51.4542 100.545 50.4542 70.8447 50.4542 56.6445C50.4542 33.1445 63.9542 19.1445 87.9542 19.1445C108.653 19.1445 124.954 35.9443 124.954 56.6445C124.954 83.033 114.331 98.1715 93.755 122.087ZM105.954 57.6445C105.178 39.4133 86.6286 37.263 79.5794 43.5335C79.2052 43.8663 79.1955 44.4316 79.4911 44.8357C81.6591 47.7994 81.9621 50.5234 81.9621 52.2031C81.9621 56.4393 79.7683 60.1628 76.453 62.2981C76.1743 62.4776 75.9875 62.7719 75.9661 63.1027C74.9564 78.7078 76.0907 96.501 77.4542 102.645C77.6769 103.647 78.7941 105.281 80.423 107.283C94.6251 92.3016 106.959 77.4472 105.954 57.6445Z" fill="#00C7F2"/>
<path d="M150.684 118.308C110.508 123.149 77.9062 152.62 68.4336 191.181C66.6094 198.601 65.6406 206.36 65.6406 214.343C65.6406 221.974 66.5234 229.397 68.1953 236.519C74.3359 238.513 80.8867 239.591 87.6875 239.591C122.48 239.591 150.684 211.388 150.684 176.597V118.308Z" fill="white" fill-opacity="0.3" style="mix-blend-mode:overlay"/>
<path d="M150.688 137.832V176.597C150.688 210.884 123.297 238.772 89.1992 239.573C86.4727 231.665 84.9922 223.177 84.9922 214.343C84.9922 175.577 113.496 143.469 150.688 137.832Z" fill="white" fill-opacity="0.3" style="mix-blend-mode:overlay"/>
<path d="M150.691 157.48V176.597C150.691 204.081 133.09 227.455 108.543 236.06C105.836 229.352 104.344 222.021 104.344 214.343C104.344 186.293 124.242 162.891 150.691 157.48Z" fill="white" fill-opacity="0.3" style="mix-blend-mode:overlay"/>
<path d="M150.684 177.45C150.418 197.599 140.688 215.464 125.738 226.808C124.406 222.896 123.688 218.704 123.688 214.343C123.688 197.051 135.031 182.408 150.684 177.45Z" fill="white" fill-opacity="0.3" style="mix-blend-mode:overlay"/>
<path d="M75.6797 82.6567C75.9375 91.4604 76.6562 99.0479 77.4531 102.644C77.9609 104.921 83.0703 110.451 88.3398 116.154L88.3633 116.177C95.582 123.993 103.094 132.124 99.4531 132.644C80.4531 135.344 55.9531 113.144 53.4531 106.144C52.1953 102.625 51.3359 89.5903 50.8672 76.8647L58.3516 69.3804C58.9414 68.7866 58.582 67.6807 57.8594 67.2578C56.3711 66.3911 55.375 64.7798 55.375 62.9355C55.375 60.1743 57.6133 57.9355 60.375 57.9355C63.1367 57.9355 65.375 60.1743 65.375 62.9355C65.375 63.9556 65.0703 64.9043 64.5469 65.6953C64.1211 66.334 63.5547 66.8701 62.8906 67.2573C62.168 67.6807 61.8086 68.7871 62.4023 69.3804L75.6797 82.6567Z" fill="#1B5183"/>
<path d="M60.8806 102.848C62.4319 112.775 78.9416 128.897 99.4531 132.641C80.4531 135.341 55.9531 113.141 53.4531 106.141C52.1953 102.622 51.3359 89.5869 50.8672 76.8613L58.3516 69.377C58.3516 69.377 59.0628 91.2169 60.8806 102.848Z" fill="#1B5183" fill-opacity="0.2" style="mix-blend-mode:multiply"/>
<circle cx="60.375" cy="62.9355" r="2" fill="#EEF6F7"/>
<path d="M158.198 128.474C156.818 128.474 155.698 129.593 155.698 130.974V176.598C155.698 214.15 125.256 244.591 87.7046 244.591C50.1528 244.591 19.7109 214.15 19.7109 176.598V160.974C19.7109 159.593 18.5916 158.474 17.2109 158.474C15.8302 158.474 14.7109 159.593 14.7109 160.974V176.598C14.7109 216.911 47.3913 249.591 87.7046 249.591C128.018 249.591 160.698 216.911 160.698 176.598V130.974C160.698 129.593 159.579 128.474 158.198 128.474Z" fill="#00C7F2"/>
<path d="M155.698 78.6182C155.698 79.9989 156.818 81.1182 158.198 81.1182C159.579 81.1182 160.698 79.9989 160.698 78.6182V72.9937C160.698 32.6804 128.018 0 87.7046 0C47.3913 0 14.7109 32.6804 14.7109 72.9937V108.618C14.7109 109.999 15.8302 111.118 17.2109 111.118C18.5916 111.118 19.7109 109.999 19.7109 108.618V72.9937C19.7109 35.4418 50.1528 5 87.7046 5C125.256 5 155.698 35.4418 155.698 72.9937V78.6182Z" fill="#00C7F2"/>
<path d="M0 135.134C0 134.582 0.447715 134.134 1 134.134H4.3125C11.4922 134.134 17.3125 139.954 17.3125 147.134V150.446C17.3125 150.999 16.8648 151.446 16.3125 151.446H13C5.82031 151.446 0 145.626 0 138.446V135.134Z" fill="#00C980"/>
<path d="M30.3125 123.555H33.625C34.1773 123.555 34.625 124.002 34.625 124.555V127.867C34.625 135.047 28.8047 140.867 21.625 140.867H18.3125C17.7602 140.867 17.3125 140.419 17.3125 139.867V136.555C17.3125 129.375 23.1328 123.555 30.3125 123.555Z" fill="#00C980"/>
<circle cx="3.64374" cy="3.64374" r="3.64374" transform="matrix(-1 0 0 1 20.9648 147.792)" fill="#7F41CF"/>
<circle cx="3.64374" cy="3.64374" r="3.64374" transform="matrix(-1 0 0 1 20.9648 137.222)" fill="#7F41CF"/>
<path d="M15.2503 127.693C15.0135 127.283 14.4638 127.164 14.1787 127.542C13.3559 128.634 13.281 130.304 14.1077 131.735C14.9344 133.167 16.4174 133.937 17.7745 133.77C18.2447 133.713 18.4166 133.177 18.1797 132.767L15.2503 127.693Z" fill="#EEF6F7" style="mix-blend-mode:color-dodge"/>
<path d="M18.6437 132.499C18.8806 132.909 19.4302 133.028 19.7153 132.65C20.5382 131.558 20.613 129.889 19.7864 128.457C18.9597 127.025 17.4766 126.255 16.1196 126.422C15.6494 126.48 15.4775 127.015 15.7143 127.425L18.6437 132.499Z" fill="#EEF6F7" style="mix-blend-mode:color-dodge"/>
<path d="M18.1798 116.637C18.4167 116.226 18.2448 115.691 17.7746 115.633C16.4175 115.467 14.9345 116.236 14.1078 117.668C13.2811 119.1 13.3559 120.769 14.1788 121.861C14.4639 122.24 15.0136 122.121 15.2504 121.711L18.1798 116.637Z" fill="#EEF6F7" style="mix-blend-mode:color-dodge"/>
<path d="M15.7144 121.978C15.4776 122.389 15.6495 122.924 16.1197 122.982C17.4767 123.149 18.9598 122.379 19.7865 120.947C20.6131 119.515 20.5383 117.846 19.7154 116.754C19.4303 116.375 18.8807 116.494 18.6438 116.905L15.7144 121.978Z" fill="#EEF6F7" style="mix-blend-mode:color-dodge"/>
<path d="M34.625 124.753C34.625 124.308 34.0864 124.085 33.7714 124.4L18.1657 140.012C17.8508 140.327 18.0739 140.865 18.5193 140.865H21.625C28.8047 140.865 34.625 135.043 34.625 127.86V124.753Z" fill="#00C981" fill-opacity="0.5" style="mix-blend-mode:multiply"/>
<path d="M0.0078125 135.324C0.0078125 134.878 0.546482 134.655 0.861436 134.97L16.4672 150.582C16.7821 150.897 16.5589 151.436 16.1135 151.436H13.0078C5.82811 151.436 0.0078125 145.613 0.0078125 138.43V135.324Z" fill="#00C981" fill-opacity="0.5" style="mix-blend-mode:multiply"/>
<path d="M175.492 105.134C175.492 104.582 175.044 104.134 174.492 104.134H171.18C164 104.134 158.18 109.954 158.18 117.134V120.446C158.18 120.999 158.627 121.446 159.18 121.446H162.492C169.672 121.446 175.492 115.626 175.492 108.446V105.134Z" fill="#00C980"/>
<path d="M145.18 93.5547H141.867C141.315 93.5547 140.867 94.0024 140.867 94.5547V97.8672C140.867 105.047 146.688 110.867 153.867 110.867H157.18C157.732 110.867 158.18 110.419 158.18 109.867V106.555C158.18 99.375 152.359 93.5547 145.18 93.5547Z" fill="#00C980"/>
<circle cx="158.171" cy="121.436" r="3.64374" fill="#7F41CF"/>
<circle cx="158.171" cy="110.865" r="3.64374" fill="#7F41CF"/>
<path d="M160.242 97.6932C160.479 97.2829 161.028 97.1641 161.313 97.5424C162.136 98.6343 162.211 100.304 161.384 101.735C160.558 103.167 159.075 103.937 157.718 103.77C157.247 103.713 157.076 103.177 157.312 102.767L160.242 97.6932Z" fill="#EEF6F7" style="mix-blend-mode:color-dodge"/>
<path d="M156.848 102.499C156.612 102.909 156.062 103.028 155.777 102.65C154.954 101.558 154.879 99.8887 155.706 98.4569C156.532 97.025 158.016 96.2552 159.373 96.4219C159.843 96.4796 160.015 97.015 159.778 97.4253L156.848 102.499Z" fill="#EEF6F7" style="mix-blend-mode:color-dodge"/>
<path d="M157.312 86.6367C157.076 86.2264 157.247 85.691 157.718 85.6333C159.075 85.4666 160.558 86.2364 161.384 87.6683C162.211 89.1001 162.136 90.7694 161.313 91.8613C161.028 92.2396 160.479 92.1208 160.242 91.7105L157.312 86.6367Z" fill="#EEF6F7" style="mix-blend-mode:color-dodge"/>
<path d="M159.778 91.9784C160.015 92.3887 159.843 92.9241 159.373 92.9819C158.015 93.1485 156.532 92.3787 155.706 90.9468C154.879 89.515 154.954 87.8457 155.777 86.7538C156.062 86.3755 156.611 86.4943 156.848 86.9046L159.778 91.9784Z" fill="#EEF6F7" style="mix-blend-mode:color-dodge"/>
<path d="M140.867 94.7534C140.867 94.3079 141.406 94.0848 141.721 94.3999L157.327 110.012C157.641 110.327 157.418 110.865 156.973 110.865H153.867C146.687 110.865 140.867 105.043 140.867 97.8601V94.7534Z" fill="#00C981" fill-opacity="0.5" style="mix-blend-mode:multiply"/>
<path d="M175.484 105.324C175.484 104.878 174.946 104.655 174.631 104.97L159.025 120.582C158.71 120.897 158.933 121.436 159.379 121.436H162.484C169.664 121.436 175.484 115.613 175.484 108.43V105.324Z" fill="#00C981" fill-opacity="0.5" style="mix-blend-mode:multiply"/>
</g>
<defs>
<clipPath id="clip0_1911_382">
<rect width="175.492" height="249.591" fill="white"/>
</clipPath>
</defs>
</svg>