<svg width="141" height="141" viewBox="0 0 141 141" fill="none" xmlns="http://www.w3.org/2000/svg">
<g id="Mingo Extra Small" clip-path="url(#clip0_1911_412)">
<g id="Union">
<path d="M4.99355 65.6858C7.45673 31.7602 35.7641 5 70.3194 5C104.875 5 133.182 31.7602 135.645 65.6858C135.745 67.0629 136.943 68.0982 138.32 67.9982C139.697 67.8982 140.732 66.7008 140.632 65.3237C137.981 28.8032 107.515 0 70.3194 0C33.124 0 2.65826 28.8032 0.00667791 65.3237C-0.093306 66.7008 0.941991 67.8982 2.31908 67.9982C3.69616 68.0982 4.89357 67.0629 4.99355 65.6858Z" fill="#F04E45"/>
<path d="M4.99355 75.3141C4.89356 73.9371 3.69616 72.9018 2.31908 73.0017C0.941988 73.1017 -0.0933094 74.2991 0.00667338 75.6762C2.65822 112.197 33.124 141 70.3194 141C107.515 141 137.981 112.197 140.632 75.6762C140.732 74.2991 139.697 73.1017 138.32 73.0017C136.943 72.9018 135.745 73.9371 135.645 75.3141C133.182 109.24 104.875 136 70.3194 136C35.7641 136 7.45669 109.24 4.99355 75.3141Z" fill="#F04E45"/>
<path d="M49.4219 56.791C50.5264 56.791 51.4219 55.8956 51.4219 54.791C51.4219 53.6864 50.5264 52.791 49.4219 52.791C48.3173 52.791 47.4219 53.6864 47.4219 54.791C47.4219 55.8956 48.3173 56.791 49.4219 56.791Z" fill="#F04E45"/>
<path fill-rule="evenodd" clip-rule="evenodd" d="M67.8293 130.942C68.2788 130.962 68.7118 130.772 69.0085 130.433C71.7011 127.364 74.8605 122.941 74.8605 122.941L74.6788 122.84C79.3541 124.407 84.0786 125.129 88.5046 124.5C90.0801 124.275 89.5668 122.624 87.8922 120.19L87.8881 120.184C87.7604 119.999 87.6261 119.809 87.4854 119.615L87.4701 119.593C87.06 119.028 86.5966 118.427 86.09 117.797C85.1266 116.599 84.0071 115.297 82.8004 113.938C103.376 90.0256 114 74.8871 114 48.5C114 27.7998 97.7031 11 77 11C53 11 39.5 25 39.5 48.5C39.5 53.7773 39.6406 61.1953 39.9141 68.7207L39.9188 68.716C40.3858 81.443 41.2477 94.4807 42.5046 98C43.5919 101.044 48.8401 106.963 55.9873 112.459L55.7863 112.347C53.8561 114.148 51.5537 116.726 49.3891 119.149C47.7776 120.953 46.2424 122.672 44.9941 123.921C44.5105 124.405 44.6495 125.219 45.2712 125.505C52.1873 128.682 59.8056 130.594 67.8293 130.942ZM44.7873 64.7362C44.7704 64.1856 44.9821 63.6526 45.3717 63.2631L47.3984 61.2363C47.9844 60.6426 47.625 59.5361 46.9062 59.1133C45.4219 58.2461 44.4219 56.6348 44.4219 54.791C44.4219 53.7812 44.7188 52.8418 45.2344 52.0557C46.125 50.6914 47.6641 49.791 49.4219 49.791C52.1875 49.791 54.4219 52.0293 54.4219 54.791C54.4219 55.2744 54.3516 55.7422 54.2266 56.1846C54.0859 56.6748 53.8672 57.1348 53.5938 57.5508C53.1719 58.1895 52.6016 58.7256 51.9375 59.1133C51.2188 59.5361 50.8594 60.6426 51.4531 61.2363L59.0567 68.841C59.4281 69.2125 59.6381 69.7157 59.6437 70.241C59.7599 81.083 60.6015 90.9846 61.6237 95.5847C61.9744 97.1629 62.8857 98.6166 63.5469 99.5863C64.3157 100.714 65.2877 101.942 66.333 103.186C68.4086 105.657 71.0684 108.535 73.6587 111.338L73.7185 111.403C75.7925 113.647 77.8054 115.828 79.5517 117.812C79.9872 118.307 79.557 119.041 78.918 118.88C73.4432 117.499 67.6044 114.535 62.1589 110.774C58.0137 107.91 54.3717 104.772 51.6565 101.985C50.2986 100.591 49.2154 99.3284 48.431 98.2743C47.5965 97.1528 47.2802 96.5055 47.2133 96.3184C46.9564 95.599 46.5551 93.3256 46.1679 89.4082C45.804 85.7268 45.4963 81.1342 45.2483 76.2228C45.0582 72.4585 44.9045 68.5367 44.7873 64.7362ZM65.0078 54.958C64.7713 58.6525 64.6546 62.4713 64.6315 66.2288H64.6343C64.5565 78.3373 65.4627 89.8113 66.5046 94.5C66.5323 94.6246 66.5738 94.7589 66.6283 94.9024C66.9949 95.8678 67.952 97.2508 69.2782 98.8979L69.3882 99.0341L69.4711 99.1362C83.6732 84.1546 96.0078 69.3006 95 49.5C94.2266 31.2686 75.6719 29.1182 68.625 35.3887C68.25 35.7217 68.2422 36.2861 68.5391 36.6904C70.7031 39.6543 71.0078 42.3779 71.0078 44.0586C71.0078 48.2939 68.8125 52.0176 65.5 54.1533C65.2188 54.333 65.0312 54.627 65.0078 54.958Z" fill="#F04E45"/>
</g>
</g>
<defs>
<clipPath id="clip0_1911_412">
<rect width="140.639" height="141" fill="white"/>
</clipPath>
</defs>
</svg>
